PathFileType	4	(X/Y/Z)	D:\TRACE\v60_Jaco2_6-2-23\JustBodyDRS_Motion3_5-platform.trc
DataRate	CameraRate	NumFrames	NumMarkers	Units	OrigDataRate	OrigDataStartFrame	OrigNumFrames
100.00	100.00	      60	5	mm	100.00	876	      7000
Frame#	Time	Left_Front			Right_Front			Left_Aft			Right_Aft			Post			
		X1	Y1	Z1	X2	Y2	Z2	X3	Y3	Z3	X4	Y4	Z4	X5	Y5	Z5	

876	8.750	-762.42651	-13.25528	-654.86658	807.53424	-14.31311	-632.95844	-694.30267	26.14688	477.78333	720.52814	27.17876	583.13501	32.84625	1273.18506	-1013.12622	
877	8.760	-762.58081	-12.94748	-655.60095	807.88422	-14.40410	-633.07886	-693.92889	26.03294	477.75684	720.80060	27.01129	582.95514	33.15537	1273.18835	-1012.98151	
878	8.770	-762.42139	-12.92775	-655.74548	808.04810	-14.45199	-633.05927	-693.72314	25.97059	477.76184	721.03223	27.13315	583.06885	33.45960	1273.12549	-1012.87146	
879	8.780	-762.26343	-12.99497	-655.82953	808.26971	-14.46015	-633.03925	-693.55249	25.93832	477.83392	721.27679	27.15813	583.09210	33.91601	1273.04395	-1012.51196	
880	8.790	-762.23248	-13.38849	-655.98096	808.59790	-14.40806	-632.84033	-693.33691	25.98899	477.86255	721.49091	27.16879	583.10590	34.00861	1273.11292	-1012.44135	
881	8.800	-761.83649	-13.06350	-655.74664	808.86554	-14.34922	-632.84039	-693.04614	25.98617	477.67596	721.65546	27.21347	583.13843	33.96778	1273.11523	-1012.43005	
882	8.810	-761.61377	-12.97635	-655.78235	809.11572	-14.23681	-632.83038	-692.71771	26.00377	477.67953	721.83844	27.11430	583.06134	34.10298	1273.15259	-1012.50000	
883	8.820	-761.39740	-12.88276	-655.79114	809.38354	-14.33074	-632.94800	-692.50311	26.00023	477.68564	722.06195	26.98007	582.94611	34.63473	1273.21216	-1012.61530	
884	8.830	-761.11151	-12.91742	-655.69080	809.87061	-14.60036	-633.30463	-692.35651	26.01134	477.71756	722.33203	26.93507	582.93335	34.92987	1273.21155	-1012.67035	
885	8.840	-760.76349	-13.09713	-655.46454	809.90955	-14.46576	-632.81262	-692.07178	25.95568	477.73257	722.63556	26.88598	583.07599	35.07460	1273.15369	-1012.68475	
886	8.850	-760.45361	-13.18693	-655.39722	810.11511	-14.35001	-632.78375	-691.80853	25.93949	477.74435	722.89679	26.88094	583.09009	35.33960	1273.13757	-1012.69525	
887	8.860	-760.20105	-13.26479	-655.45660	810.28735	-14.33319	-632.77222	-691.52222	25.96765	477.78964	723.15332	26.82094	583.09821	35.45761	1273.21765	-1012.80396	
888	8.870	-760.04376	-13.16185	-655.47662	810.88629	-14.34763	-633.14996	-691.29932	25.95911	477.80820	723.41217	26.86350	583.09467	35.66775	1273.27283	-1012.90601	
889	8.880	-759.76300	-13.15431	-655.51593	810.76904	-14.29205	-632.88000	-691.09460	25.97448	477.84155	723.60669	26.85230	583.13574	35.92788	1273.22168	-1012.88055	
890	8.890	-759.50427	-13.18599	-655.58057	810.98541	-14.36468	-632.90350	-690.79590	25.78020	477.99908	723.83478	26.95428	583.24390	36.26356	1273.11633	-1012.73676	
891	8.900	-759.25415	-13.19133	-655.55157	811.17548	-14.36418	-632.87646	-690.83667	26.21837	477.70633	724.02710	27.01137	583.29443	36.53045	1273.11462	-1012.63007	
892	8.910	-759.09747	-13.16888	-655.56665	811.42975	-14.40418	-632.87463	-690.65521	26.27358	477.70886	724.25702	27.00544	583.29120	36.84496	1273.14063	-1012.45007	
893	8.920	-758.59491	-13.18215	-655.14844	811.62732	-14.25651	-632.95947	-690.44476	26.30358	477.71689	724.56769	27.05618	583.27087	37.03043	1273.18909	-1012.35223	
894	8.930	-758.77997	-12.84773	-655.61169	811.78070	-14.22602	-633.01959	-690.34979	26.31029	477.71890	724.90887	26.96297	583.22473	37.24820	1273.15808	-1012.30743	
895	8.940	-758.36591	-13.03007	-655.08429	812.02325	-14.29014	-632.96100	-690.18317	26.31529	477.75290	724.94159	27.19768	583.06653	37.33323	1273.19043	-1012.25824	
896	8.950	-758.18323	-13.41628	-655.10077	812.17188	-14.38267	-632.93195	-689.98914	26.32372	477.77029	725.11505	27.16968	583.08215	37.57117	1273.16821	-1012.29846	
897	8.960	-758.07623	-13.35104	-655.02924	812.22754	-14.35910	-632.87329	-689.74463	26.18959	477.74149	725.22339	27.24031	583.10150	37.60587	1273.17017	-1012.30396	
898	8.970	-758.32312	-12.97857	-655.67346	812.44379	-14.27310	-632.85474	-689.54651	26.11127	477.72247	725.05878	27.02181	582.77399	37.79622	1273.25220	-1012.35895	
899	8.980	-758.11908	-12.85438	-655.62036	812.56348	-14.07752	-632.84930	-689.43231	26.15910	477.70670	725.12347	26.84009	582.59406	38.08656	1273.35242	-1012.47925	
900	8.990	-757.90143	-12.74520	-655.56146	812.72113	-14.00787	-632.79065	-689.34497	26.20211	477.62311	725.40814	26.76783	582.63568	38.11072	1273.44568	-1012.40021	
901	9.000	-757.78912	-12.76234	-655.61334	812.83020	-14.04770	-632.78705	-689.25458	26.15980	477.63644	725.71979	26.73758	582.79938	38.20081	1273.44373	-1012.33624	
902	9.010	-757.74738	-12.69882	-655.60437	812.97168	-14.05547	-632.80615	-689.17902	26.06498	477.67447	725.89526	26.64599	582.90063	38.31617	1273.54163	-1012.32489	
903	9.020	-757.67896	-12.74015	-655.57397	813.07556	-14.01447	-632.82001	-688.97046	25.91376	477.71878	725.97076	26.48537	582.82532	38.39771	1273.63818	-1012.19855	
904	9.030	-757.57794	-12.66926	-655.32587	813.21600	-13.87586	-632.80804	-688.82208	25.92292	477.78702	726.20160	26.64529	583.33502	38.42640	1273.80164	-1011.91345	
905	9.040	-757.32245	-12.73299	-655.32159	813.43750	-13.72911	-632.72339	-688.62408	25.88754	477.79071	726.39954	26.34956	583.42395	38.48607	1274.00232	-1011.72986	
906	9.050	-757.28955	-12.50141	-655.45062	813.52570	-13.59580	-632.69409	-688.53876	25.85173	477.80386	726.40607	26.47215	583.36365	38.61528	1274.19727	-1011.34174	
907	9.060	-757.29156	-12.17760	-655.51050	813.56641	-13.53129	-632.68427	-688.54651	25.72331	477.82019	726.46667	26.43750	583.36249	38.78703	1274.44482	-1011.00549	
908	9.070	-757.14648	-12.18376	-655.42700	813.64465	-13.48217	-632.63428	-688.51593	25.72558	477.84830	726.31476	26.12120	583.39960	39.09832	1274.61597	-1010.55957	
909	9.080	-756.93030	-12.14853	-655.22943	813.76776	-13.31077	-632.58191	-688.44305	25.68631	477.88641	726.43854	26.15488	583.49261	39.16641	1274.69067	-1010.31897	
910	9.090	-756.80823	-11.87053	-655.09259	813.86829	-13.11273	-632.58081	-688.41003	25.71293	477.85266	726.52875	26.13074	583.55768	39.11372	1274.75354	-1010.12640	
911	9.100	-756.68549	-11.62373	-655.14075	813.86212	-12.95486	-632.59753	-688.36151	25.65569	477.82074	726.51440	26.03295	583.57617	39.02288	1274.88074	-1009.81201	
912	9.110	-756.75360	-11.51664	-655.18536	814.09442	-13.06009	-632.97577	-688.41779	25.51745	477.83231	726.44214	25.83991	583.54736	39.07664	1275.07739	-1009.54865	
913	9.120	-756.78607	-11.49237	-655.19611	814.02161	-12.95127	-632.96521	-688.42480	25.39331	477.92426	726.39319	25.69770	583.54675	38.96937	1275.21460	-1009.24500	
914	9.130	-756.80060	-11.33747	-655.10083	813.78699	-12.60737	-632.64063	-688.40363	25.29811	478.01505	726.38556	25.52130	583.66278	38.97498	1275.42493	-1009.07227	
915	9.140	-756.76276	-11.16061	-654.96118	813.78943	-12.46560	-632.60693	-688.31372	25.17058	478.12534	726.36975	25.37907	583.66040	39.09434	1275.85193	-1008.62982	
916	9.150	-756.94836	-10.85608	-654.79340	813.84656	-12.35663	-632.60858	-688.28326	25.06362	478.15692	726.01953	24.92751	583.67285	39.17878	1276.23096	-1008.32147	
917	9.160	-756.83954	-10.76062	-654.84521	813.84998	-12.21660	-632.53149	-688.29822	25.01417	478.18478	726.25079	24.95188	583.88373	38.86970	1276.47131	-1007.99390	
918	9.170	-756.98694	-10.59040	-654.88666	813.86896	-12.05004	-632.45642	-688.29803	24.89474	478.25916	726.24738	24.74192	583.95197	39.22807	1276.80981	-1007.93005	
919	9.180	-756.87329	-10.55278	-654.93152	813.84686	-11.97794	-632.38049	-688.27325	24.67877	478.40204	726.26129	24.54274	584.03094	39.15735	1276.94043	-1007.72632	
920	9.190	-756.78113	-10.46366	-654.88879	813.88190	-11.81276	-632.34766	-688.22070	24.49322	478.48679	725.95734	24.42388	584.34283	39.27537	1277.08069	-1007.32239	
921	9.200	-756.77319	-10.37546	-654.82990	813.96265	-11.59323	-632.27441	-688.17145	24.34166	478.52551	726.05792	24.45211	584.46313	39.18766	1277.25342	-1006.99725	
922	9.210	-756.93048	-10.07854	-654.81262	813.97711	-11.29735	-632.17566	-688.12109	24.28715	478.58270	726.90576	24.57860	584.15271	39.20295	1277.65686	-1006.62921	
923	9.220	-757.00922	-9.76904	-654.81543	813.97296	-11.00468	-632.08026	-688.10333	24.13327	478.55383	726.86713	24.39017	584.17255	39.18935	1278.06348	-1006.06873	
924	9.230	-756.94324	-9.46461	-654.70978	813.84326	-10.79205	-632.01367	-688.05920	23.94767	478.54425	726.91937	24.22658	584.19830	39.15701	1278.44055	-1005.72632	
925	9.240	-756.99146	-9.27941	-654.57172	813.71887	-10.53004	-631.99750	-688.02930	23.63424	478.65366	726.98090	24.15336	584.20795	39.04600	1278.78186	-1005.07983	
926	9.250	-756.96924	-9.02608	-654.59564	813.70038	-10.29162	-632.08008	-688.04285	23.45959	478.70428	726.85840	23.97182	584.25598	39.02909	1279.26453	-1004.25122	
927	9.260	-756.97394	-8.72983	-654.71564	813.66418	-10.06875	-632.09827	-688.11768	23.37866	478.76962	726.69989	23.74896	584.32672	38.66254	1279.44885	-1003.09735	
928	9.270	-757.05127	-8.26876	-654.77576	813.52374	-9.66461	-632.03455	-688.33148	23.20152	478.76956	726.47546	23.55076	584.35681	38.71430	1280.02563	-1002.75665	
929	9.280	-757.33850	-7.72626	-654.86438	813.39063	-9.40032	-631.95581	-688.61481	23.03899	478.77563	726.28326	23.27851	584.41193	38.53478	1280.41663	-1002.25427	
930	9.290	-757.50824	-7.56307	-654.83691	813.23438	-9.35618	-631.82800	-688.84705	22.84542	478.86667	725.96564	22.93812	584.52460	38.33569	1280.82397	-1001.60583	
931	9.300	-757.64673	-7.53624	-654.87201	813.08484	-9.33341	-631.75818	-689.00464	22.73351	478.89304	725.76837	22.73300	584.55627	38.18817	1281.32910	-1000.97540	
932	9.310	-757.76801	-7.33428	-654.95740	812.92798	-8.84533	-631.66754	-689.15955	22.54293	479.01346	725.70264	22.58573	584.61334	38.23361	1281.78088	-1000.25824	
933	9.320	-757.81232	-6.90337	-654.71857	812.88177	-8.47217	-631.60925	-689.08801	22.02637	479.33215	725.41431	22.37217	584.84009	38.26765	1282.09790	-999.74506	
934	9.330	-757.73615	-6.44304	-654.44629	812.99854	-8.41374	-631.89020	-689.12402	21.94542	479.38232	725.43378	22.27854	585.07043	37.98320	1282.47559	-999.28296	
935	9.340	-757.78754	-6.32528	-654.37958	812.70325	-8.03568	-631.50531	-689.19391	21.79085	479.39261	725.42181	21.80929	584.99890	37.92808	1282.95288	-998.72064	
